<!-- icon666.com - MILLIONS OF FREE VECTOR ICONS --><svg version="1.1" id="Layer_1" xmlns="http://www.w3.org/2000/svg" xmlns:xlink="http://www.w3.org/1999/xlink" x="0px" y="0px" viewBox="0 0 512 512" style="enable-background:new 0 0 512 512;" xml:space="preserve"><g><g><g><path d="M256,0C114.841,0,0,114.841,0,256s114.841,256,256,256s256-114.841,256-256S397.159,0,256,0z M256,495.832 C123.756,495.832,16.168,388.244,16.168,256S123.756,16.168,256,16.168c132.243,0,239.832,107.588,239.832,239.832 S388.243,495.832,256,495.832z" fill="#000000" style="fill: rgb(104, 107, 110);"></path><path d="M256,41.457C137.701,41.457,41.457,137.701,41.457,256S137.701,470.543,256,470.543 c40.956,0,80.805-11.634,115.238-33.643c33.506-21.417,60.399-51.589,77.771-87.257c1.954-4.014,0.286-8.853-3.728-10.808 c-4.014-1.956-8.852-0.286-10.808,3.727C401.391,410.485,331.336,454.374,256,454.374c-109.384,0-198.375-88.991-198.375-198.375 S146.616,57.625,256,57.625s198.375,88.989,198.375,198.374c0,21.685-3.495,43.017-10.388,63.402 c-1.43,4.23,0.839,8.818,5.068,10.248c4.231,1.432,8.819-0.839,10.248-5.068c7.459-22.057,11.24-45.13,11.24-68.581 C470.543,137.7,374.3,41.457,256,41.457z" fill="#000000" style="fill: rgb(104, 107, 110);"></path><path d="M320.39,284.507c1.316-2.98,0.714-6.46-1.527-8.825c-2.241-2.364-5.683-3.154-8.731-2.001 c-4.748,1.798-9.738,2.709-14.833,2.709c-23.125,0-41.939-18.813-41.939-41.938c0-12.217,5.326-23.806,14.613-31.796 c2.469-2.125,3.422-5.524,2.417-8.622c-1.006-3.099-3.772-5.291-7.019-5.562c-2.075-0.172-3.96-0.257-5.761-0.257 c-37.833,0-68.612,30.779-68.612,68.612s30.779,68.612,68.612,68.612C284.768,325.441,309.41,309.375,320.39,284.507z M257.608,309.273c-28.918,0-52.444-23.526-52.444-52.444c0-24.441,16.809-45.032,39.473-50.821 c-4.831,8.593-7.446,18.363-7.448,28.446c0,32.039,26.067,58.106,58.107,58.106c0.231,0,0.461-0.001,0.692-0.004 C286.231,303.029,272.408,309.273,257.608,309.273z" fill="#000000" style="fill: rgb(104, 107, 110);"></path><path d="M157.124,256.829c0-4.465-3.62-8.084-8.084-8.084H99.29c-4.465,0-8.084,3.62-8.084,8.084c0,4.465,3.62,8.084,8.084,8.084 h49.749C153.504,264.913,157.124,261.294,157.124,256.829z" fill="#000000" style="fill: rgb(104, 107, 110);"></path><path d="M420.793,256.829c0-4.465-3.618-8.084-8.084-8.084H362.96c-4.466,0-8.084,3.62-8.084,8.084 c0,4.465,3.618,8.084,8.084,8.084h49.75C417.174,264.913,420.794,261.294,420.793,256.829z" fill="#000000" style="fill: rgb(104, 107, 110);"></path><path d="M145.19,375.724c2.068,0,4.138-0.789,5.716-2.368l35.178-35.178c3.157-3.156,3.157-8.275,0-11.432 c-3.156-3.157-8.275-3.157-11.432,0l-35.178,35.178c-3.157,3.157-3.157,8.275,0,11.432 C141.052,374.935,143.122,375.724,145.19,375.724z" fill="#000000" style="fill: rgb(104, 107, 110);"></path><path d="M337.349,186.913l35.177-35.177c3.157-3.156,3.157-8.275,0-11.432s-8.275-3.157-11.433,0l-35.177,35.177 c-3.157,3.157-3.157,8.276,0,11.433c1.579,1.578,3.649,2.367,5.717,2.367S335.771,188.491,337.349,186.913z" fill="#000000" style="fill: rgb(104, 107, 110);"></path><path d="M247.916,363.789v49.749c0,4.465,3.62,8.084,8.084,8.084c4.466,0,8.084-3.62,8.084-8.084v-49.749 c0-4.465-3.619-8.084-8.084-8.084C251.535,355.705,247.916,359.325,247.916,363.789z" fill="#000000" style="fill: rgb(104, 107, 110);"></path><path d="M264.084,149.869V100.12c0-4.465-3.619-8.084-8.084-8.084c-4.465,0-8.084,3.62-8.084,8.084v49.749 c0,4.465,3.62,8.084,8.084,8.084C260.466,157.954,264.084,154.334,264.084,149.869z" fill="#000000" style="fill: rgb(104, 107, 110);"></path><path d="M325.916,338.178l35.178,35.178c1.579,1.579,3.648,2.368,5.717,2.368c2.068,0,4.138-0.789,5.716-2.368 c3.157-3.156,3.157-8.275,0-11.432l-35.178-35.178c-3.156-3.157-8.274-3.158-11.433,0 C322.758,329.902,322.758,335.021,325.916,338.178z" fill="#000000" style="fill: rgb(104, 107, 110);"></path><path d="M186.085,175.481l-35.178-35.177c-3.157-3.157-8.276-3.157-11.433,0c-3.157,3.156-3.157,8.275,0,11.432l35.178,35.178 c1.578,1.578,3.648,2.367,5.716,2.367c2.07,0,4.138-0.79,5.717-2.367C189.242,183.756,189.242,178.638,186.085,175.481z" fill="#000000" style="fill: rgb(104, 107, 110);"></path></g></g></g></svg>