<svg width="24.000000" height="24.000000" viewBox="0 0 24 24" fill="none" xmlns="http://www.w3.org/2000/svg" xmlns:xlink="http://www.w3.org/1999/xlink">
	<desc>
			Created with Pixso.
	</desc>
	<defs/>
	<path id="icon" d="M16 21L6 21C4.34 21 3 19.65 3 18L3 10L3 8.5M5.12 5.12C5.4 5.04 5.69 5 6 5L7 5L17 5L18 5C19.65 5 21 6.34 21 8L21 10L21 18C21 18.82 20.66 19.57 20.12 20.12M7 5L7 3M17 5L17 3M2 2L5.12 5.12L10 10L20.12 20.12L22 22M10 10L21 10M3 10L5.5 10" stroke="#686B6E" stroke-opacity="1.000000" stroke-width="1.500000" stroke-linejoin="round" stroke-linecap="round"/>
</svg>
