<svg width="24.000000" height="24.000000" viewBox="0 0 24 24" fill="none" xmlns="http://www.w3.org/2000/svg" xmlns:xlink="http://www.w3.org/1999/xlink">
	<desc>
			Created with Pixso.
	</desc>
	<defs/>
	<path id="icon" d="M12 21L6 21C4.34 21 3 19.65 3 18L3 10L3 8C3 6.34 4.34 5 6 5L7 5L17 5L18 5C19.65 5 21 6.34 21 8L21 10L21 12M7 5L7 3M17 5L17 3M3 10L21 10M7 14L9 14M15 19L17.29 21.29C17.68 21.68 18.31 21.68 18.7 21.29L23 17" stroke="#686B6E" stroke-opacity="1.000000" stroke-width="1.500000" stroke-linecap="round"/>
</svg>
