<svg width="24.000000" height="24.000000" stroke="currentColor" viewBox="0 0 24 24" fill="none" xmlns="http://www.w3.org/2000/svg" xmlns:xlink="http://www.w3.org/1999/xlink">
	<desc>
			Created with Pixso.
	</desc>
	<defs/>
	<path id="icon" d="M14 12C14 13.1 13.1 14 12 14C10.89 14 10 13.1 10 12C10 10.89 10.89 10 12 10C13.1 10 14 10.89 14 12ZM4.22 7.46C4.76 6.52 5.96 6.2 6.9 6.74L7.14 6.88C7.71 7.21 8.42 7.13 8.99 6.8C9.56 6.47 10 5.89 10 5.23L10 4.95C10 3.87 10.87 3 11.95 3L12.04 3C13.12 3 14 3.87 14 4.95L14 5.23C14 5.89 14.43 6.47 15 6.8C15.57 7.13 16.28 7.21 16.85 6.88L17.09 6.74C18.03 6.2 19.23 6.52 19.77 7.46L19.81 7.53C20.35 8.47 20.03 9.67 19.09 10.21L18.85 10.35C18.28 10.68 18 11.33 18 12C18 12.66 18.28 13.31 18.85 13.64L19.09 13.78C20.03 14.32 20.35 15.52 19.81 16.46L19.77 16.53C19.23 17.47 18.03 17.79 17.09 17.25L16.85 17.11C16.28 16.78 15.57 16.86 15 17.19C14.43 17.52 14 18.1 14 18.76L14 19.04C14 20.12 13.12 21 12.04 21L11.95 21C10.87 21 10 20.12 10 19.04L10 18.76C10 18.1 9.56 17.52 8.99 17.19C8.42 16.86 7.71 16.78 7.14 17.11L6.9 17.25C5.96 17.79 4.76 17.47 4.22 16.53L4.18 16.46C3.64 15.52 3.96 14.32 4.9 13.78L5.14 13.64C5.71 13.31 6 12.66 6 12C6 11.33 5.71 10.68 5.14 10.35L4.9 10.21C3.96 9.67 3.64 8.47 4.18 7.53L4.22 7.46Z" stroke-opacity="1.000000" stroke-width="1.500000" stroke-linejoin="round"/>
</svg>
