<svg width="24.000000" height="24.000000" viewBox="0 0 24 24" fill="none" xmlns="http://www.w3.org/2000/svg" xmlns:xlink="http://www.w3.org/1999/xlink">
	<desc>
			Created with Pixso.
	</desc>
	<defs/>
	<path id="icon" d="M2 12C2 6.47 6.47 2 12 2C17.52 2 22 6.47 22 12C22 17.52 17.52 22 12 22C6.47 22 2 17.52 2 12ZM9.7 8.29C9.31 7.9 8.68 7.9 8.29 8.29C7.9 8.68 7.9 9.31 8.29 9.7L10.58 12L8.29 14.29C7.9 14.68 7.9 15.31 8.29 15.7C8.68 16.09 9.31 16.09 9.7 15.7L12 13.41L14.29 15.7C14.68 16.09 15.31 16.09 15.7 15.7C16.09 15.31 16.09 14.68 15.7 14.29L13.41 12L15.7 9.7C16.09 9.31 16.09 8.68 15.7 8.29C15.31 7.9 14.68 7.9 14.29 8.29L12 10.58L9.7 8.29Z" fill="#686B6E" fill-opacity="1.000000" fill-rule="evenodd"/>
</svg>
