<svg width="24.000000" height="24.000000" viewBox="0 0 24 24" fill="none" xmlns="http://www.w3.org/2000/svg" xmlns:xlink="http://www.w3.org/1999/xlink">
	<desc>
			Created with Pixso.
	</desc>
	<defs/>
	<path id="icon" d="M7.61 7.61C10.72 5.58 14.92 5.92 17.65 8.65L21 12L17.65 15.34C17.26 15.73 16.83 16.08 16.38 16.38M13 17.62C10.63 17.92 8.16 17.16 6.34 15.34L3 12L5 10M10.58 10.58C10.94 10.22 11.44 10 12 10C13.1 10 14 10.89 14 12C14 12.55 13.77 13.05 13.41 13.41M21 21L16.38 16.38L13.41 13.41L10.58 10.58L7.61 7.61L3 3" stroke="#686B6E" stroke-opacity="1.000000" stroke-width="1.500000" stroke-linejoin="round" stroke-linecap="round"/>
</svg>
