<svg width="24.000000" height="24.000000" viewBox="0 0 24 24" fill="none" xmlns="http://www.w3.org/2000/svg" xmlns:xlink="http://www.w3.org/1999/xlink">
	<desc>
			Created with Pixso.
	</desc>
	<defs/>
	<path id="icon" d="M3.58 20.58C4.36 21.36 5.63 21.36 6.41 20.58L13.5 13.5L15.58 11.41C16.36 10.63 16.36 9.36 15.58 8.58L15.41 8.41C14.63 7.63 13.36 7.63 12.58 8.41L10.5 10.5L3.41 17.58C2.63 18.36 2.63 19.63 3.41 20.41L3.58 20.58ZM10.5 10.5L13.5 13.5M8.29 8.35L6 7.38M11.33 5.31L10.41 3M15.64 5.31L16.57 3M18.68 8.35L20.98 7.39M18.68 12.64L21 13.57M15.64 15.68L16.57 18" stroke="#686B6E" stroke-opacity="1.000000" stroke-width="1.500000" stroke-linejoin="round" stroke-linecap="round"/>
</svg>
