<svg width="24.000000" height="24.000000" viewBox="0 0 24 24" fill="none" xmlns="http://www.w3.org/2000/svg" xmlns:xlink="http://www.w3.org/1999/xlink">
	<desc>
			Created with Pixso.
	</desc>
	<defs/>
	<path id="icon" d="M19 5C20.1 5 21 5.89 21 7L21 16C21 16.82 20.66 17.57 20.12 18.12C19.57 18.66 18.82 19 18 19L6 19C5.17 19 4.42 18.66 3.87 18.12C3.33 17.57 3 16.82 3 16L3 7C3 5.89 3.89 5 5 5L19 5ZM4 6L10 12L10.58 12.58C11.36 13.36 12.63 13.36 13.41 12.58L14 12L20 6M20.12 18.12L14 12M3.87 18.12L10 12" stroke="#686B6E" stroke-opacity="1.000000" stroke-width="1.500000" stroke-linecap="round"/>
</svg>
