<svg width="24.000000" height="24.000000" viewBox="0 0 24 24" fill="none" xmlns="http://www.w3.org/2000/svg" xmlns:xlink="http://www.w3.org/1999/xlink">
	<desc>
			Created with Pixso.
	</desc>
	<defs/>
	<path id="icon" d="M12 21L8.32 21C7.79 21 7.28 20.78 6.91 20.41L3.58 17.08C3.21 16.71 3 16.2 3 15.67L3 12L3 8.32C3 7.79 3.21 7.28 3.58 6.91L6.91 3.58C7.28 3.21 7.79 3 8.32 3L12 3L15.67 3C16.2 3 16.71 3.21 17.08 3.58L20.41 6.91C20.78 7.28 21 7.79 21 8.32L21 12L21 15.67C21 16.2 20.78 16.71 20.41 17.08L17.08 20.41C16.71 20.78 16.2 21 15.67 21L12 21Z" stroke="#686B6E" stroke-opacity="1.000000" stroke-width="1.500000"/>
</svg>
