<svg width="24.000000" height="24.000000" viewBox="0 0 24 24" fill="none" xmlns="http://www.w3.org/2000/svg" xmlns:xlink="http://www.w3.org/1999/xlink">
	<desc>
			Created with Pixso.
	</desc>
	<defs/>
	<path id="icon" d="M17 10C18.1 10 19 10.89 19 12L19 18C19 19.1 18.1 20 17 20L7 20C5.89 20 5 19.1 5 18L5 12C5 10.89 5.89 10 7 10L17 10ZM8 10L8 8C8 5.79 9.79 4 12 4C14.2 4 16 5.79 16 8L16 10M12 15C11.44 15 11 14.55 11 14C11 13.44 11.44 13 12 13C12.55 13 13 13.44 13 14C13 14.55 12.55 15 12 15ZM12 15L12 17" stroke="#686B6E" stroke-opacity="1.000000" stroke-width="1.500000" stroke-linejoin="round" stroke-linecap="round"/>
</svg>
