<svg width="24.000000" height="24.000000" viewBox="0 0 24 24" fill="none" xmlns="http://www.w3.org/2000/svg" xmlns:xlink="http://www.w3.org/1999/xlink">
<desc>
Created with Pixso.
</desc>
<defs/>
<path id="icon" d="M12 3C15.31 3 18 5.51 18 8.61C18 9.16 17.91 9.72 17.76 10.28C17.61 10.83 17.4 11.37 17.15 11.89C16.38 13.46 15.17 14.9 13.66 16.34C12.75 17.21 11.24 17.21 10.33 16.34C8.84 14.92 7.62 13.41 6.86 11.89C6.84 11.86 6.83 11.84 6.82 11.81C6.29 10.74 6 9.66 6 8.61C6 5.51 8.68 3 12 3ZM12 11C10.89 11 10 10.1 10 9C10 7.89 10.89 7 12 7C13.1 7 14 7.89 14 9C14 10.1 13.1 11 12 11ZM17.15 11.89C19.47 12.8 21 14.3 21 16C21 18.76 16.97 21 12 21C7.02 21 3 18.76 3 16C3 14.29 4.52 12.79 6.86 11.89" stroke="#686B6E" stroke-opacity="1.000000" stroke-width="1.500000"/>
</svg>