<svg width="24.000000" height="24.000000" viewBox="0 0 24 24" fill="none" xmlns="http://www.w3.org/2000/svg" xmlns:xlink="http://www.w3.org/1999/xlink">
	<desc>
			Created with Pixso.
	</desc>
	<defs/>
	<path id="icon" d="M13.93 20.12C12.87 21.23 11.12 21.23 10.06 20.12C7.06 16.97 5 13.5 5 10.2C5 6.22 8.13 3 12 3C15.86 3 19 6.22 19 10.2C19 13.5 16.93 16.97 13.93 20.12ZM12 12C10.89 12 10 11.1 10 10C10 8.89 10.89 8 12 8C13.1 8 14 8.89 14 10C14 11.1 13.1 12 12 12Z" stroke="#686B6E" stroke-opacity="1.000000" stroke-width="1.500000"/>
</svg>
