<svg width="24.000000" height="24.000000" viewBox="0 0 24 24" fill="none" xmlns="http://www.w3.org/2000/svg" xmlns:xlink="http://www.w3.org/1999/xlink">
	<desc>
			Created with Pixso.
	</desc>
	<defs/>
	<path id="icon" d="M14.4 8.35C14.54 8.71 14.86 8.96 15.23 8.99L19.08 9.31C19.96 9.39 20.32 10.54 19.65 11.14L16.72 13.76C16.43 14.01 16.31 14.41 16.4 14.79L17.29 18.71C17.5 19.61 16.56 20.32 15.8 19.84L12.51 17.74C12.2 17.54 11.79 17.54 11.48 17.74L8.19 19.84C7.43 20.32 6.49 19.61 6.7 18.71L7.59 14.79C7.68 14.41 7.56 14.01 7.27 13.76L4.34 11.14C3.67 10.54 4.03 9.39 4.91 9.31L8.76 8.99C9.13 8.96 9.45 8.71 9.6 8.35L11.08 4.64C11.42 3.78 12.57 3.78 12.91 4.64L14.4 8.35Z" stroke="#686B6E" stroke-opacity="1.000000" stroke-width="1.500000" stroke-linejoin="round"/>
</svg>
