<svg width="24.000000" height="24.000000" viewBox="0 0 24 24" fill="none" xmlns="http://www.w3.org/2000/svg" xmlns:xlink="http://www.w3.org/1999/xlink">
	<desc>
			Created with Pixso.
	</desc>
	<defs/>
	<rect id="tresh" width="24.000000" height="24.000000" fill="#FFFFFF" fill-opacity="0"/>
	<path id="icon" d="M11.25 3C9.59 3 8.25 4.34 8.25 6L8.25 6.75L4.75 6.75C4.33 6.75 4 7.08 4 7.5C4 7.91 4.33 8.25 4.75 8.25L6 8.25L6 17.08C6 17.61 6 18.06 6.02 18.42C6.06 18.8 6.12 19.16 6.29 19.49C6.56 20.01 6.98 20.43 7.5 20.7C7.83 20.87 8.19 20.93 8.57 20.97C8.93 21 9.38 21 9.91 21L14.08 21C14.61 21 15.06 21 15.42 20.97C15.8 20.93 16.16 20.87 16.49 20.7C17.01 20.43 17.43 20.01 17.7 19.49C17.87 19.16 17.93 18.8 17.97 18.42C18 18.06 18 17.61 18 17.08L18 8.25L19.25 8.25C19.66 8.25 20 7.91 20 7.5C20 7.08 19.66 6.75 19.25 6.75L15.75 6.75L15.75 6C15.75 4.34 14.4 3 12.75 3L11.25 3ZM14.25 6.75L9.75 6.75L9.75 6C9.75 5.17 10.42 4.5 11.25 4.5L12.75 4.5C13.57 4.5 14.25 5.17 14.25 6L14.25 6.75ZM7.5 17.04L7.5 8.25L16.5 8.25L16.5 17.04C16.5 17.62 16.49 18 16.47 18.3C16.45 18.58 16.4 18.72 16.36 18.81C16.24 19.05 16.05 19.24 15.81 19.36C15.72 19.4 15.58 19.45 15.3 19.47C15 19.49 14.62 19.5 14.05 19.5L9.94 19.5C9.37 19.5 8.99 19.49 8.69 19.47C8.41 19.45 8.27 19.4 8.18 19.36C7.94 19.24 7.75 19.05 7.63 18.81C7.59 18.72 7.54 18.58 7.52 18.3C7.5 18 7.5 17.62 7.5 17.04ZM10 11C10.41 11 10.75 11.33 10.75 11.75L10.75 17.75C10.75 18.16 10.41 18.5 10 18.5C9.58 18.5 9.25 18.16 9.25 17.75L9.25 11.75C9.25 11.33 9.58 11 10 11ZM14.75 11.75C14.75 11.33 14.41 11 14 11C13.58 11 13.25 11.33 13.25 11.75L13.25 17.75C13.25 18.16 13.58 18.5 14 18.5C14.41 18.5 14.75 18.16 14.75 17.75L14.75 11.75Z" fill="#686B6E" fill-opacity="1.000000" fill-rule="evenodd"/>
</svg>
