<svg width="64.000000" height="64.000000" viewBox="0 0 64 64" fill="none" xmlns="http://www.w3.org/2000/svg" xmlns:xlink="http://www.w3.org/1999/xlink">
<desc>
Created with Pixso.
</desc>
<defs/>
<circle id="Ellipse 1" cx="32.000000" cy="32.000000" r="32.000000" fill="#575C70" fill-opacity="0.300000"/>
<g opacity="0.000000">
<rect id="bg" x="16.000000" y="16.000000" width="32.000000" height="32.000000" fill="#9096A9" fill-opacity="1.000000"/>
</g>
<path id="Union" d="M32 46C39.73 46 46 39.73 46 32C46 24.26 39.73 18 32 18C24.26 18 18 24.26 18 32C18 39.73 24.26 46 32 46ZM32 44C38.62 44 44 38.62 44 32C44 25.37 38.62 20 32 20C25.37 20 20 25.37 20 32C20 38.62 25.37 44 32 44ZM30 29C30 30.1 29.1 31 28 31C26.89 31 26 30.1 26 29C26 27.89 26.89 27 28 27C29.1 27 30 27.89 30 29ZM36 31C37.1 31 38 30.1 38 29C38 27.89 37.1 27 36 27C34.89 27 34 27.89 34 29C34 30.1 34.89 31 36 31ZM28.2 38.2C28.27 38.14 28.33 38.07 28.4 38C28.65 37.73 28.93 37.44 29.38 37.16C29.93 36.82 30.75 36.5 32 36.5C33.24 36.5 34.06 36.82 34.61 37.16C35.06 37.44 35.34 37.73 35.59 38C35.66 38.07 35.72 38.14 35.79 38.2C36.18 38.59 36.81 38.59 37.2 38.2C37.59 37.81 37.59 37.18 37.2 36.79C37.17 36.76 37.14 36.72 37.09 36.67C36.85 36.41 36.37 35.89 35.66 35.46C34.8 34.92 33.62 34.5 32 34.5C30.37 34.5 29.19 34.92 28.33 35.46C27.63 35.89 27.14 36.41 26.9 36.67C26.85 36.72 26.82 36.76 26.79 36.79C26.4 37.18 26.4 37.81 26.79 38.2C27.18 38.59 27.81 38.59 28.2 38.2Z" fill="white" fill-opacity="1.000000" fill-rule="evenodd"/>
</svg>
