<svg width="24.000000" height="24.000000" viewBox="0 0 24 24" fill="none" xmlns="http://www.w3.org/2000/svg" xmlns:xlink="http://www.w3.org/1999/xlink">
	<desc>
			Created with Pixso.
	</desc>
	<defs/>
	<path id="icon" d="M12 11C9.79 11 8 9.2 8 7C8 4.79 9.79 3 12 3C14.2 3 16 4.79 16 7C16 9.2 14.2 11 12 11ZM5 21C5 17.68 7.68 15 11 15L13 15M18.98 17.62C18.99 17.63 19 17.63 19.01 17.62L19.62 17.04C20.23 16.45 21.19 16.45 21.8 17.04C22.45 17.66 22.45 18.7 21.8 19.32L19.52 21.49C19.23 21.77 18.76 21.77 18.47 21.49L16.19 19.32C15.54 18.7 15.54 17.66 16.19 17.04C16.8 16.45 17.76 16.45 18.37 17.04L18.98 17.62Z" stroke="#686B6E" stroke-opacity="1.000000" stroke-width="1.500000" stroke-linejoin="round" stroke-linecap="round"/>
</svg>
