<svg width="24.000000" height="24.000000" viewBox="0 0 24 24" fill="none" xmlns="http://www.w3.org/2000/svg" xmlns:xlink="http://www.w3.org/1999/xlink">
	<desc>
			Created with Pixso.
	</desc>
	<defs/>
	<path id="icon" d="M16 15C15.08 16.21 13.63 17 12 17C10.36 17 8.91 16.21 7.99 15C7.37 14.16 7 13.12 7 12C7 10.87 7.37 9.83 7.99 9C8.91 7.78 10.36 7 12 7C13.63 7 15.08 7.78 16 9C16.62 9.83 17 10.87 17 12C17 13.12 16.62 14.16 16 15ZM16 15L14.45 19.63C14.18 20.44 13.41 21 12.55 21L11.44 21C10.58 21 9.81 20.44 9.54 19.63L7.99 15M7.99 9L9.54 4.36C9.81 3.55 10.58 3 11.44 3L12.55 3C13.41 3 14.18 3.55 14.45 4.36L16 9M13 13L12.58 12.58C12.21 12.21 12 11.7 12 11.17L12 10" stroke="#686B6E" stroke-opacity="1.000000" stroke-width="1.500000" stroke-linejoin="round" stroke-linecap="round"/>
</svg>
