<svg width="28.000000" height="28.000000" viewBox="0 0 28 28" fill="none" xmlns="http://www.w3.org/2000/svg" xmlns:xlink="http://www.w3.org/1999/xlink">
	<desc>
			Created with Pixso.
	</desc>
	<defs>
		<linearGradient x1="14.000000" y1="4.812500" x2="14.000000" y2="23.187500" id="paint_linear_839_45406_0" gradientUnits="userSpaceOnUse">
			<stop stop-color="#FFFFFF" stop-opacity="0.000000"/>
			<stop stop-color="#FFFFFF"/>
			<stop offset="1.000000" stop-color="#FFFFFF"/>
			<stop offset="1.000000" stop-color="#FFFFFF"/>
		</linearGradient>
		<linearGradient x1="18.593750" y1="4.812500" x2="18.593750" y2="23.187500" id="paint_linear_839_45408_0" gradientUnits="userSpaceOnUse">
			<stop stop-color="#FFFFFF" stop-opacity="0.000000"/>
			<stop stop-color="#FFFFFF"/>
			<stop offset="1.000000" stop-color="#FFFFFF"/>
			<stop offset="1.000000" stop-color="#FFFFFF"/>
		</linearGradient>
		<linearGradient x1="14.000000" y1="23.187500" x2="14.000000" y2="4.812500" id="paint_linear_839_45409_0" gradientUnits="userSpaceOnUse">
			<stop stop-color="#FFFFFF" stop-opacity="0.000000"/>
			<stop stop-color="#FFFFFF"/>
			<stop offset="0.047683" stop-color="#A0E720" stop-opacity="0.000000"/>
			<stop offset="0.395422" stop-color="#FFFFFF" stop-opacity="0.000000"/>
			<stop offset="1.000000" stop-color="#FFFFFF"/>
		</linearGradient>
	</defs>
	<rect id="Louder" width="28.000000" height="28.000000" fill="#FFFFFF" fill-opacity="0"/>
	<path id="Subtract" d="M23.18 14C23.18 18.92 19.3 22.94 14.43 23.17C14.19 23.18 14 22.99 14 22.75C14 22.5 14.19 22.31 14.43 22.3C18.82 22.07 22.31 18.44 22.31 14C22.31 9.4 18.59 5.68 14 5.68L14 4.81C19.07 4.81 23.18 8.92 23.18 14Z" fill="url(#paint_linear_839_45408_0)" fill-opacity="1.000000" fill-rule="evenodd"/>
	<path id="Subtract" d="M4.81 14C4.81 18.92 8.69 22.94 13.56 23.17C13.8 23.18 14 22.99 14 22.75C14 22.5 13.8 22.31 13.56 22.3C9.17 22.07 5.68 18.44 5.68 14C5.68 9.4 9.4 5.68 14 5.68L14 4.81C8.92 4.81 4.81 8.92 4.81 14Z" fill="url(#paint_linear_839_45409_0)" fill-opacity="1.000000" fill-rule="evenodd"/>
</svg>