<svg width="24" height="24" viewBox="0 0 24 24" fill="none" xmlns="http://www.w3.org/2000/svg">
<rect width="24" height="24" fill="none"/>
<path d="M13.7365 4.7126C14.8605 3.38869 15.9768 2.83006 16.8624 2.61696C17.3014 2.51132 17.6737 2.493 17.949 2.50202C18.0867 2.50653 18.1988 2.51783 18.2807 2.52791C18.313 2.53189 18.3416 2.53584 18.3617 2.5386L18.3741 2.54029L18.3783 2.54087C19.0379 2.54846 19.797 2.85062 20.3916 3.34089C21.0014 3.84366 21.5 4.59752 21.5 5.53507C21.5 6.33707 21.359 7.07079 20.9534 7.68219C20.5431 8.30083 19.9041 8.73142 19.0322 9.0053C18.7687 9.08805 18.4881 8.94157 18.4053 8.67811C18.3226 8.41466 18.4691 8.13401 18.7325 8.05126C19.4488 7.82627 19.8686 7.50856 20.1201 7.12946C20.3763 6.74312 20.5 6.22967 20.5 5.53507C20.5 4.97601 20.2045 4.4827 19.7554 4.11245C19.2989 3.736 18.7463 3.54072 18.3529 3.54072C18.3059 3.54072 18.2535 3.5332 18.2413 3.53146L18.2392 3.53117L18.2228 3.52892C18.2031 3.52621 18.183 3.52344 18.1583 3.52041C18.0978 3.51295 18.0166 3.50477 17.9163 3.50148C17.7159 3.49491 17.4348 3.50777 17.0963 3.58921C16.4271 3.75026 15.4925 4.18936 14.4988 5.35979C13.8101 6.17101 13.3065 7.26534 12.9754 8.33899C12.6442 9.41265 12.5 10.4181 12.5 11.0226V21C12.5 21.2761 12.2761 21.5 12 21.5C11.7239 21.5 11.5 21.2761 11.5 21V11C11.5 10.3904 11.3632 9.37985 11.0499 8.30212C10.7365 7.2236 10.26 6.12541 9.60957 5.31234C8.67156 4.13984 7.79382 3.70535 7.17355 3.54695C6.85939 3.46673 6.59912 3.45421 6.4143 3.46063C6.32178 3.46385 6.24679 3.47186 6.19086 3.47918C6.16804 3.48216 6.14948 3.48487 6.13092 3.48757L6.11517 3.48986L6.11381 3.49007C6.10404 3.49158 6.04952 3.5 6 3.5C5.64511 3.5 5.13296 3.68867 4.70425 4.06379C4.28501 4.43063 4 4.92736 4 5.5C4 6.20055 4.11781 6.7201 4.3615 7.11C4.59883 7.48972 4.99137 7.80341 5.65811 8.02566C5.92009 8.11298 6.06167 8.39614 5.97434 8.65811C5.88702 8.92009 5.60386 9.06167 5.34189 8.97434C4.50863 8.69659 3.90117 8.26028 3.5135 7.64C3.13219 7.0299 3 6.29945 3 5.5C3 4.57264 3.46499 3.81937 4.04575 3.31121C4.60873 2.8186 5.33345 2.5091 5.97178 2.5002L7.42097 2.57804C8.26919 2.79465 9.32844 3.36015 10.3904 4.68765C11.1535 5.64148 11.677 6.87663 12.0102 8.02305C12.0128 8.03204 12.0154 8.04102 12.018 8.05001C12.0186 8.04809 12.0192 8.04618 12.0198 8.04427C12.3733 6.89801 12.9285 5.66428 13.7365 4.7126Z" fill="black" stroke="rgb(19, 22, 25)" stroke-width="2" stroke-linecap="round"/>
</svg>
