<svg width="24" height="24" viewBox="0 0 24 24" fill="none" xmlns="http://www.w3.org/2000/svg">
<path d="M11.6 8.86663C11.8 8.59996 12.2 8.59996 12.4 8.86663L13.8 10.7333C14.4 11.5333 15.6 11.5333 16.2 10.7333L17.525 8.96668C17.7357 8.68571 18.1628 8.70386 18.349 9.00169L20.076 11.765C20.2224 11.9991 20.5308 12.0703 20.765 11.924C20.9992 11.7776 21.0704 11.4691 20.924 11.235L19.197 8.47169C18.6385 7.5782 17.3571 7.52377 16.725 8.36668L15.4 10.1333C15.2 10.4 14.8 10.4 14.6 10.1333L13.2 8.26663C12.6 7.46663 11.4 7.46663 10.8 8.26663L9.40001 10.1333C9.20001 10.4 8.80001 10.4 8.60001 10.1333L7.27505 8.36668C6.64287 7.52377 5.36148 7.5782 4.80305 8.47169L3.07601 11.235C2.92965 11.4691 3.00084 11.7776 3.23501 11.924C3.46917 12.0703 3.77765 11.9991 3.92401 11.765L5.65105 9.00169C5.83719 8.70386 6.26432 8.68571 6.47505 8.96668L7.80001 10.7333C8.40001 11.5333 9.60001 11.5333 10.2 10.7333L11.6 8.86663Z" fill="black"/>
<path d="M11.6 14.3666C11.8 14.1 12.2 14.1 12.4 14.3666L13.8 16.2333C14.4 17.0333 15.6 17.0333 16.2 16.2333L17.525 14.4667C17.7357 14.1857 18.1628 14.2039 18.349 14.5017L20.076 17.265C20.2224 17.4991 20.5308 17.5703 20.765 17.424C20.9992 17.2776 21.0704 16.9691 20.924 16.735L19.197 13.9717C18.6385 13.0782 17.3571 13.0238 16.725 13.8667L15.4 15.6333C15.2 15.9 14.8 15.9 14.6 15.6333L13.2 13.7666C12.6 12.9666 11.4 12.9666 10.8 13.7666L9.40001 15.6333C9.20001 15.9 8.80001 15.9 8.60001 15.6333L7.27505 13.8667C6.64287 13.0238 5.36148 13.0782 4.80305 13.9717L3.07601 16.735C2.92965 16.9691 3.00084 17.2776 3.23501 17.424C3.46917 17.5703 3.77765 17.4991 3.92401 17.265L5.65105 14.5017C5.83719 14.2039 6.26432 14.1857 6.47505 14.4667L7.80001 16.2333C8.40001 17.0333 9.60001 17.0333 10.2 16.2333L11.6 14.3666Z" fill="black"/>
<path d="M11.6 8.86663C11.8 8.59996 12.2 8.59996 12.4 8.86663L13.8 10.7333C14.4 11.5333 15.6 11.5333 16.2 10.7333L17.525 8.96668C17.7357 8.68571 18.1628 8.70386 18.349 9.00169L20.076 11.765C20.2224 11.9991 20.5308 12.0703 20.765 11.924C20.9992 11.7776 21.0704 11.4691 20.924 11.235L19.197 8.47169C18.6385 7.5782 17.3571 7.52377 16.725 8.36668L15.4 10.1333C15.2 10.4 14.8 10.4 14.6 10.1333L13.2 8.26663C12.6 7.46663 11.4 7.46663 10.8 8.26663L9.40001 10.1333C9.20001 10.4 8.80001 10.4 8.60001 10.1333L7.27505 8.36668C6.64287 7.52377 5.36148 7.5782 4.80305 8.47169L3.07601 11.235C2.92965 11.4691 3.00084 11.7776 3.23501 11.924C3.46917 12.0703 3.77765 11.9991 3.92401 11.765L5.65105 9.00169C5.83719 8.70386 6.26432 8.68571 6.47505 8.96668L7.80001 10.7333C8.40001 11.5333 9.60001 11.5333 10.2 10.7333L11.6 8.86663Z" stroke="rgb(19, 22, 25)" stroke-width="2" stroke-linecap="round"/>
<path d="M11.6 14.3666C11.8 14.1 12.2 14.1 12.4 14.3666L13.8 16.2333C14.4 17.0333 15.6 17.0333 16.2 16.2333L17.525 14.4667C17.7357 14.1857 18.1628 14.2039 18.349 14.5017L20.076 17.265C20.2224 17.4991 20.5308 17.5703 20.765 17.424C20.9992 17.2776 21.0704 16.9691 20.924 16.735L19.197 13.9717C18.6385 13.0782 17.3571 13.0238 16.725 13.8667L15.4 15.6333C15.2 15.9 14.8 15.9 14.6 15.6333L13.2 13.7666C12.6 12.9666 11.4 12.9666 10.8 13.7666L9.40001 15.6333C9.20001 15.9 8.80001 15.9 8.60001 15.6333L7.27505 13.8667C6.64287 13.0238 5.36148 13.0782 4.80305 13.9717L3.07601 16.735C2.92965 16.9691 3.00084 17.2776 3.23501 17.424C3.46917 17.5703 3.77765 17.4991 3.92401 17.265L5.65105 14.5017C5.83719 14.2039 6.26432 14.1857 6.47505 14.4667L7.80001 16.2333C8.40001 17.0333 9.60001 17.0333 10.2 16.2333L11.6 14.3666Z" stroke="rgb(19, 22, 25)" stroke-width="2" stroke-linecap="round"/>
</svg>
