<svg width="24" height="24" viewBox="0 0 24 24" fill="none" xmlns="http://www.w3.org/2000/svg">
<path d="M3.57998 3.7288C3.72969 3.49699 4.03886 3.43032 4.27077 3.57973C4.2709 3.57981 4.27126 3.58004 4 4.00006L3.72874 4.42008C3.49677 4.27027 3.43016 3.96077 3.57998 3.7288Z" fill="black"/>
<path fill-rule="evenodd" clip-rule="evenodd" d="M8.5 17.8384V6.16168C7.52872 5.97076 6.68635 5.72082 5.99174 5.47043C5.2762 5.21251 4.71652 4.95379 4.33297 4.7578C4.14115 4.65978 3.99322 4.57737 3.89171 4.51847C3.84095 4.48902 3.80178 4.46544 3.77452 4.44872L3.74259 4.42889L3.73339 4.42306L3.73049 4.42121L3.72874 4.42008C3.72856 4.41997 3.72874 4.42008 4 4.00006L4.27077 3.57973L4.27548 3.5827L4.29743 3.59633C4.31792 3.6089 4.35007 3.62829 4.39357 3.65352C4.48057 3.704 4.61288 3.77784 4.788 3.86732C5.13831 4.04633 5.65928 4.28761 6.33084 4.52969C7.67427 5.01395 9.61658 5.50006 12 5.50006C14.3834 5.50006 16.3257 5.01395 17.6692 4.52969C18.3407 4.28761 18.8617 4.04633 19.212 3.86732C19.3871 3.77784 19.5194 3.704 19.6064 3.65352C19.6499 3.62829 19.6821 3.6089 19.7026 3.59633L19.7245 3.5827L19.7287 3.58004C19.9607 3.43044 20.2703 3.49691 20.42 3.7288C20.5698 3.96077 20.5032 4.27027 20.2713 4.42008L20 4.00006C20.2713 4.42008 20.2714 4.41997 20.2713 4.42008L20.2695 4.42121L20.2666 4.42306L20.2574 4.42889L20.2255 4.44872C20.1982 4.46544 20.159 4.48902 20.1083 4.51847C20.0068 4.57737 19.8589 4.65978 19.667 4.7578C19.2835 4.95379 18.7238 5.21251 18.0083 5.47043C17.3137 5.72082 16.4713 5.97076 15.5 6.16168V17.8384C16.4713 18.0294 17.3137 18.2793 18.0083 18.5297C18.7238 18.7876 19.2835 19.0463 19.667 19.2423C19.8589 19.3403 20.0068 19.4228 20.1083 19.4816C20.159 19.5111 20.1982 19.5347 20.2255 19.5514L20.2574 19.5712L20.2666 19.5771L20.2695 19.5789L20.2705 19.5796C20.2707 19.5797 20.2713 19.58 20 20.0001L20.2705 19.5796C20.5025 19.7294 20.5698 20.0394 20.42 20.2713C20.2703 20.5032 19.9609 20.5698 19.729 20.4202L19.7245 20.4174L19.7026 20.4038C19.6821 20.3912 19.6499 20.3718 19.6064 20.3466C19.5194 20.2961 19.3871 20.2223 19.212 20.1328C18.8617 19.9538 18.3407 19.7125 17.6692 19.4704C16.3257 18.9862 14.3834 18.5001 12 18.5001C9.61658 18.5001 7.67427 18.9862 6.33084 19.4704C5.65928 19.7125 5.13831 19.9538 4.788 20.1328C4.61288 20.2223 4.48057 20.2961 4.39357 20.3466C4.35007 20.3718 4.31792 20.3912 4.29743 20.4038L4.27548 20.4174L4.27126 20.4201L4 20.0001C3.72874 19.58 3.7289 19.5799 3.72907 19.5798L3.73049 19.5789L3.73339 19.5771L3.74259 19.5712L3.77452 19.5514C3.80178 19.5347 3.84095 19.5111 3.89171 19.4816C3.99322 19.4228 4.14115 19.3403 4.33297 19.2423C4.71652 19.0463 5.2762 18.7876 5.99174 18.5297C6.68635 18.2793 7.52872 18.0294 8.5 17.8384ZM9.5 17.6712C10.2703 17.5647 11.1061 17.5001 12 17.5001C12.8939 17.5001 13.7297 17.5647 14.5 17.6712V6.32889C13.7297 6.43538 12.8939 6.50006 12 6.50006C11.1061 6.50006 10.2703 6.43538 9.5 6.32889V17.6712Z" fill="black"/>
<path d="M4.27126 20.4201C4.27117 20.4201 4.27135 20.42 4.27126 20.4201Z" fill="black"/>
<path d="M4.27126 20.4201C4.03932 20.5697 3.72974 20.5032 3.57998 20.2713C3.43016 20.0394 3.4971 19.7296 3.72907 19.5798L4 20.0001C4.27126 20.4201 4.27139 20.42 4.27126 20.4201Z" fill="black"/>
<path d="M4.27077 3.57973C4.03886 3.43032 3.72969 3.49699 3.57998 3.7288C3.43016 3.96077 3.49677 4.27027 3.72874 4.42008M4.27077 3.57973C4.2709 3.57981 4.27126 3.58004 4 4.00006M4.27077 3.57973L4 4.00006M4.27077 3.57973L4.27548 3.5827L4.29743 3.59633C4.31792 3.6089 4.35007 3.62829 4.39357 3.65352C4.48057 3.704 4.61288 3.77784 4.788 3.86732C5.13831 4.04633 5.65928 4.28761 6.33084 4.52969C7.67427 5.01395 9.61658 5.50006 12 5.50006C14.3834 5.50006 16.3257 5.01395 17.6692 4.52969C18.3407 4.28761 18.8617 4.04633 19.212 3.86732C19.3871 3.77784 19.5194 3.704 19.6064 3.65352C19.6499 3.62829 19.6821 3.6089 19.7026 3.59633L19.7245 3.5827L19.7287 3.58004C19.9607 3.43044 20.2703 3.49691 20.42 3.7288C20.5698 3.96077 20.5032 4.27027 20.2713 4.42008M4 4.00006L3.72874 4.42008M4 4.00006C3.72874 4.42008 3.72856 4.41997 3.72874 4.42008M3.72874 4.42008L3.73049 4.42121L3.73339 4.42306L3.74259 4.42889L3.77452 4.44872C3.80178 4.46544 3.84095 4.48902 3.89171 4.51847C3.99322 4.57737 4.14115 4.65978 4.33297 4.7578C4.71652 4.95379 5.2762 5.21251 5.99174 5.47043C6.68635 5.72082 7.52872 5.97076 8.5 6.16168V17.8384C7.52872 18.0294 6.68635 18.2793 5.99174 18.5297C5.2762 18.7876 4.71652 19.0463 4.33297 19.2423C4.14115 19.3403 3.99322 19.4228 3.89171 19.4816C3.84095 19.5111 3.80178 19.5347 3.77452 19.5514L3.74259 19.5712L3.73339 19.5771L3.73049 19.5789L3.72907 19.5798M20.2713 4.42008L20 4.00006C20.2713 4.42008 20.2714 4.41997 20.2713 4.42008ZM20.2713 4.42008L20.2695 4.42121L20.2666 4.42306L20.2574 4.42889L20.2255 4.44872C20.1982 4.46544 20.159 4.48902 20.1083 4.51847C20.0068 4.57737 19.8589 4.65978 19.667 4.7578C19.2835 4.95379 18.7238 5.21251 18.0083 5.47043C17.3137 5.72082 16.4713 5.97076 15.5 6.16168V17.8384C16.4713 18.0294 17.3137 18.2793 18.0083 18.5297C18.7238 18.7876 19.2835 19.0463 19.667 19.2423C19.8589 19.3403 20.0068 19.4228 20.1083 19.4816C20.159 19.5111 20.1982 19.5347 20.2255 19.5514L20.2574 19.5712L20.2666 19.5771L20.2695 19.5789L20.2705 19.5796M20.2705 19.5796C20.2707 19.5797 20.2713 19.58 20 20.0001L20.2705 19.5796ZM20.2705 19.5796C20.5025 19.7294 20.5698 20.0394 20.42 20.2713C20.2703 20.5032 19.9609 20.5698 19.729 20.4202L19.7245 20.4174L19.7026 20.4038C19.6821 20.3912 19.6499 20.3718 19.6064 20.3466C19.5194 20.2961 19.3871 20.2223 19.212 20.1328C18.8617 19.9538 18.3407 19.7125 17.6692 19.4704C16.3257 18.9862 14.3834 18.5001 12 18.5001C9.61658 18.5001 7.67427 18.9862 6.33084 19.4704C5.65928 19.7125 5.13831 19.9538 4.788 20.1328C4.61288 20.2223 4.48057 20.2961 4.39357 20.3466C4.35007 20.3718 4.31792 20.3912 4.29743 20.4038L4.27548 20.4174L4.27126 20.4201M4.27126 20.4201L4 20.0001M4.27126 20.4201C4.27135 20.42 4.27117 20.4201 4.27126 20.4201ZM4.27126 20.4201C4.03932 20.5697 3.72974 20.5032 3.57998 20.2713C3.43016 20.0394 3.4971 19.7296 3.72907 19.5798M4.27126 20.4201C4.27139 20.42 4.27126 20.4201 4 20.0001M4 20.0001C3.72874 19.58 3.7289 19.5799 3.72907 19.5798M4 20.0001L3.72907 19.5798M12 17.5001C11.1061 17.5001 10.2703 17.5647 9.5 17.6712V6.32889C10.2703 6.43538 11.1061 6.50006 12 6.50006C12.8939 6.50006 13.7297 6.43538 14.5 6.32889V17.6712C13.7297 17.5647 12.8939 17.5001 12 17.5001Z" stroke="rgb(19, 22, 25)" stroke-width="2" stroke-linecap="round"/>
</svg>
