<svg width="24" height="24" viewBox="0 0 24 24" fill="none" xmlns="http://www.w3.org/2000/svg">
<path d="M6.77639 2.55277C7.02338 2.42928 7.32372 2.52939 7.44721 2.77638L8.4925 4.86695C9.38152 6.64499 9.88435 8.56268 9.99828 10.5H14.0017C14.1156 8.56268 14.6185 6.64499 15.5075 4.86695L16.5528 2.77638C16.6763 2.52939 16.9766 2.42928 17.2236 2.55277C17.4706 2.67627 17.5707 2.97661 17.4472 3.22359L16.4019 5.31417C15.5832 6.95161 15.1163 8.71627 15.0036 10.5H18C18.2761 10.5 18.5 10.7238 18.5 11C18.5 11.2761 18.2761 11.5 18 11.5H14.9775C14.9975 13.3172 15.3842 15.1333 16.1402 16.8344L17.4569 19.7969C17.5691 20.0493 17.4554 20.3447 17.2031 20.4569C16.9507 20.569 16.6552 20.4554 16.5431 20.2031L15.2264 17.2406C14.4128 15.41 13.9974 13.4555 13.9774 11.5H10.0226C10.0026 13.4555 9.58717 15.41 8.77357 17.2406L7.45691 20.2031C7.34475 20.4554 7.04927 20.569 6.79693 20.4569C6.54459 20.3447 6.43094 20.0493 6.54309 19.7969L7.85976 16.8344C8.61583 15.1333 9.00255 13.3172 9.02249 11.5H6C5.72386 11.5 5.5 11.2761 5.5 11C5.5 10.7238 5.72386 10.5 6 10.5H8.99643C8.88373 8.71627 8.41679 6.95161 7.59807 5.31417L6.55279 3.22359C6.42929 2.97661 6.5294 2.67627 6.77639 2.55277Z" fill="black" stroke="rgb(19, 22, 25)" stroke-width="2" stroke-linecap="round"/>
</svg>
