<svg width="24" height="24" viewBox="0 0 24 24" fill="none" xmlns="http://www.w3.org/2000/svg">
<path fill-rule="evenodd" clip-rule="evenodd" d="M11.5672 3C10.4311 3 9.34159 3.45131 8.53825 4.25464C7.88287 4.91002 7.45774 5.76029 7.32666 6.67782L7.1901 7.63379C7.05873 8.55336 7.10703 9.48968 7.33232 10.3908L7.79662 12.248C7.39562 12.088 6.95809 12 6.5 12C4.567 12 3 13.567 3 15.5C3 17.433 4.567 19 6.5 19C8.433 19 10 17.433 10 15.5C10 14.5419 9.61506 13.6738 8.99142 13.0418C8.98014 12.9051 8.95775 12.7695 8.92444 12.6362L8.30247 10.1483C8.10855 9.37264 8.06697 8.56672 8.18005 7.77521L8.31661 6.81924C8.41709 6.1159 8.74298 5.46413 9.24536 4.96175C9.86116 4.34595 10.6964 4 11.5672 4H12.2633C12.6864 4 13.1055 4.08072 13.4983 4.23783L13.6363 4.29304C14.541 4.65493 15.2169 5.42925 15.4533 6.37457C15.797 7.74964 15.7415 9.19423 15.2933 10.5389L14.5196 12.8601L13.6963 16.1532C13.5589 16.7027 13.5453 17.2759 13.6564 17.8314L13.706 18.0793C13.9286 19.1924 14.6984 20.1179 15.7524 20.5395C16.5533 20.8598 17.4467 20.8598 18.2476 20.5395L18.3434 20.5012C19.3313 20.106 20.0951 19.296 20.4315 18.2866L20.4743 18.1581C20.5617 17.8961 20.4201 17.613 20.1581 17.5257C19.8961 17.4383 19.613 17.5799 19.5257 17.8419L19.4828 17.9704C19.2394 18.7007 18.6868 19.2868 17.972 19.5727L17.8762 19.611C17.3137 19.836 16.6863 19.836 16.1238 19.611C15.3835 19.3149 14.8429 18.665 14.6865 17.8832L14.637 17.6353C14.5549 17.225 14.565 16.8016 14.6665 16.3957L15.4804 13.1399L16.242 10.8551C16.7504 9.33004 16.8133 7.69161 16.4234 6.13203C16.1092 4.8752 15.2106 3.8457 14.0077 3.36456L13.8697 3.30936C13.3588 3.105 12.8136 3 12.2633 3H11.5672ZM9.125 15.5C9.125 16.9497 7.94975 18.125 6.5 18.125C5.05025 18.125 3.875 16.9497 3.875 15.5C3.875 14.0503 5.05025 12.875 6.5 12.875C7.94975 12.875 9.125 14.0503 9.125 15.5Z" fill="black" stroke="rgb(19, 22, 25)" stroke-width="2" stroke-linejoin="round"/>
</svg>
