<svg width="24" height="24" viewBox="0 0 24 24" fill="none" xmlns="http://www.w3.org/2000/svg">
<rect width="24" height="24"/>
<path fill-rule="evenodd" clip-rule="evenodd" d="M12.5 21C16.314 21 19.603 18.7525 21.1149 15.5097C21.6685 14.8234 22 13.9504 22 13C22 10.7909 20.2091 9 18 9C15.7909 9 14 10.7909 14 13C14 15.2091 15.7909 17 18 17C18.3853 17 18.7579 16.9455 19.1105 16.8438C17.5522 18.7691 15.1699 20 12.5 20C10.4935 20 8.64935 19.3047 7.19535 18.142C6.98504 17.9042 6.72298 17.6284 6.60911 17.5863C6.51329 17.5508 6.4131 17.5314 6.32528 17.5314C6.04914 17.5314 5.82528 17.7552 5.82528 18.0314C5.82528 18.1928 5.90175 18.3363 6.02042 18.4277L6.00378 18.4318C7.70271 20.0246 9.98746 21 12.5 21ZM20.2692 14.9624C20.7245 14.4364 21 13.7504 21 13C21 11.3431 19.6569 10 18 10C16.3431 10 15 11.3431 15 13C15 14.6569 16.3431 16 18 16C18.902 16 19.711 15.6019 20.261 14.9719L20.2647 14.9635L20.2692 14.9624Z" fill="black"/>
<path fill-rule="evenodd" clip-rule="evenodd" d="M12.5 2C16.2252 2 19.4495 4.14403 21.0064 7.26539C21.0204 7.32656 21.0064 7.17365 21.0064 7.26539C21.0064 7.54154 21.0617 8 20.5 8C20.2239 8 20 7.5 20 7.5V7.5C20 7.49762 19.9994 7.49528 19.9983 7.49318C18.5663 4.81902 15.7456 3 12.5 3C9.23055 3 6.39221 4.84593 4.97036 7.55245C5.56535 7.20141 6.25916 7 7 7C9.20914 7 11 8.79086 11 11C11 13.2091 9.20914 15 7 15C5.00607 15 3.35289 13.5411 3.04972 11.6324L3.00112 11.6443C3.0004 11.5963 3.00005 11.5482 3.00005 11.5C3.00005 11.3987 3.00163 11.2978 3.00478 11.1973C3.00161 11.1319 3 11.0661 3 11C3 10.687 3.03595 10.3824 3.10396 10.0901C3.78509 5.512 7.73243 2 12.5 2ZM4.00571 11.1867C4.1021 12.7566 5.40583 14 7 14C8.65686 14 10 12.6569 10 11C10 9.34314 8.65686 8 7 8C5.59129 8 4.40936 8.97094 4.08693 10.2801C4.04417 10.5776 4.01682 10.8801 4.00571 11.1867Z" fill="black"/>
<path d="M21.0064 7.26539C19.4495 4.14403 16.2252 2 12.5 2C7.73243 2 3.78509 5.512 3.10396 10.0901C3.03595 10.3824 3 10.687 3 11C3 11.0661 3.00161 11.1319 3.00478 11.1973C3.00163 11.2978 3.00005 11.3987 3.00005 11.5C3.00005 11.5482 3.0004 11.5963 3.00112 11.6443L3.04972 11.6324C3.35289 13.5411 5.00607 15 7 15C9.20914 15 11 13.2091 11 11C11 8.79086 9.20914 7 7 7C6.25916 7 5.56535 7.20141 4.97036 7.55245C6.39221 4.84593 9.23055 3 12.5 3C15.7456 3 18.5663 4.81902 19.9983 7.49318C19.9994 7.49528 20 7.49762 20 7.5V7.5C20 7.5 20.2239 8 20.5 8C21.0617 8 21.0064 7.54154 21.0064 7.26539ZM21.0064 7.26539C21.0064 7.17365 21.0204 7.32656 21.0064 7.26539ZM21 13C21 13.7504 20.7245 14.4364 20.2692 14.9624L20.2647 14.9635L20.261 14.9719C19.711 15.6019 18.902 16 18 16C16.3431 16 15 14.6569 15 13C15 11.3431 16.3431 10 18 10C19.6569 10 21 11.3431 21 13ZM21.1149 15.5097C19.603 18.7525 16.314 21 12.5 21C9.98746 21 7.70271 20.0246 6.00378 18.4318L6.02042 18.4277C5.90175 18.3363 5.82528 18.1928 5.82528 18.0314C5.82528 17.7552 6.04914 17.5314 6.32528 17.5314C6.4131 17.5314 6.51329 17.5508 6.60911 17.5863C6.72298 17.6284 6.98504 17.9042 7.19535 18.142C8.64935 19.3047 10.4935 20 12.5 20C15.1699 20 17.5522 18.7691 19.1105 16.8438C18.7579 16.9455 18.3853 17 18 17C15.7909 17 14 15.2091 14 13C14 10.7909 15.7909 9 18 9C20.2091 9 22 10.7909 22 13C22 13.9504 21.6685 14.8234 21.1149 15.5097ZM7 14C5.40583 14 4.1021 12.7566 4.00571 11.1867C4.01682 10.8801 4.04417 10.5776 4.08693 10.2801C4.40936 8.97094 5.59129 8 7 8C8.65686 8 10 9.34314 10 11C10 12.6569 8.65686 14 7 14Z" stroke="rgb(19, 22, 25)" stroke-width="2"/>
</svg>
