<svg width="24" height="24" viewBox="0 0 24 24" fill="none" xmlns="http://www.w3.org/2000/svg">
<path fill-rule="evenodd" clip-rule="evenodd" d="M2.5 4C2.5 3.72386 2.72386 3.5 3 3.5H3.38303C4.86695 3.5 6.30668 4.00503 7.46542 4.93203C8.07196 5.41726 8.58713 6.00673 8.98676 6.67278L9.42045 7.39559C9.77707 7.98996 10.0676 8.62157 10.2868 9.27914L10.4356 9.72567C10.9315 9.57883 11.4565 9.5 12 9.5C12.5435 9.5 13.0685 9.57883 13.5644 9.72567L13.7132 9.27914C13.9324 8.62157 14.2229 7.98996 14.5795 7.39559L15.0132 6.67278C15.4129 6.00673 15.928 5.41726 16.5346 4.93203C17.6933 4.00503 19.1331 3.5 20.617 3.5H21C21.2761 3.5 21.5 3.72386 21.5 4C21.5 4.27614 21.2761 4.5 21 4.5H20.617C19.3601 4.5 18.1407 4.92775 17.1593 5.7129C16.6455 6.12387 16.2092 6.62314 15.8707 7.18728L15.437 7.91009C15.118 8.44189 14.858 9.00701 14.6619 9.59537L14.4947 10.097C16.2784 11.0064 17.5 12.8605 17.5 15C17.5 18.0376 15.0376 20.5 12 20.5C8.96243 20.5 6.5 18.0376 6.5 15C6.5 12.8605 7.72158 11.0064 9.50529 10.097L9.33808 9.59537C9.14196 9.00701 8.88204 8.44189 8.56296 7.91009L8.12927 7.18728C7.79079 6.62314 7.35445 6.12387 6.84073 5.7129C5.8593 4.92775 4.63987 4.5 3.38303 4.5H3C2.72386 4.5 2.5 4.27614 2.5 4ZM12 19.5C14.4853 19.5 16.5 17.4853 16.5 15C16.5 12.5147 14.4853 10.5 12 10.5C9.51472 10.5 7.5 12.5147 7.5 15C7.5 17.4853 9.51472 19.5 12 19.5Z" fill="black" stroke="rgb(19, 22, 25)" stroke-width="2" stroke-linecap="round"/>
</svg>
