<!--?xml version="1.0" encoding="UTF-8"?-->
    <!-- The Best Svg Icon site in the world: iconSvg.co, Visit us! https://iconsvg.co -->
    <svg id="svg" fill="white" width="24" height="24" version="1.1" viewBox="144 144 512 512" xmlns="http://www.w3.org/2000/svg">
    <g id="IconSvg_bgCarrier" stroke-width="0"></g>
    <g id="IconSvg_tracerCarrier" stroke-linecap="round" stroke-linejoin="round" stroke="#CCCCCC" stroke-width="0">
      <path xmlns="http://www.w3.org/2000/svg" d="m451.89 211.57 48.871-0.50391-73.055 79.098 71.539 72.547-49.879-0.50391-45.848-45.848-3.5273 4.0312v64.992c54.914 0.50391 100.26 45.344 100.26 101.27s-45.344 102.27-100.76 102.27c-55.918 0-100.25-46.852-100.25-103.28 0-38.289 20.656-71.039 50.883-87.664 0-24.688-0.50391-76.074-0.50391-76.074h-1.0078l1.0078-1.0078v-108.82h49.879v49.879l2.5195 2.5195zm-102.27 276.59c0 27.207 18.137 50.883 49.375 50.883 30.73 0 50.883-23.68 50.883-50.883 0-27.207-23.68-50.883-50.383-50.883-27.203 0-49.875 23.68-49.875 50.883z" fill-rule="evenodd"></path>

      </g>
     <g id="IconSvg_iconCarrier">
      <path xmlns="http://www.w3.org/2000/svg" d="m451.89 211.57 48.871-0.50391-73.055 79.098 71.539 72.547-49.879-0.50391-45.848-45.848-3.5273 4.0312v64.992c54.914 0.50391 100.26 45.344 100.26 101.27s-45.344 102.27-100.76 102.27c-55.918 0-100.25-46.852-100.25-103.28 0-38.289 20.656-71.039 50.883-87.664 0-24.688-0.50391-76.074-0.50391-76.074h-1.0078l1.0078-1.0078v-108.82h49.879v49.879l2.5195 2.5195zm-102.27 276.59c0 27.207 18.137 50.883 49.375 50.883 30.73 0 50.883-23.68 50.883-50.883 0-27.207-23.68-50.883-50.383-50.883-27.203 0-49.875 23.68-49.875 50.883z" fill-rule="evenodd"></path>

      </g>
      </svg>