<svg viewBox="0 0 512 512" xmlns="http://www.w3.org/2000/svg" fill="rgb(255, 255, 255)"><g id="_98_Lot_of_fortune_" data-name="98 Lot of fortune "><path d="m431.37 80.63a248 248 0 1 0 -350.74 350.74 248 248 0 1 0 350.74-350.74zm-74.58 16.72-100.79 113.48-100.79-113.48a187.63 187.63 0 0 1 201.58 0zm-288.79 158.65a187.15 187.15 0 0 1 42.39-118.78l105.48 118.78-105.5 118.78a187.15 187.15 0 0 1 -42.37-118.78zm87.23 158.65 100.77-113.48 100.79 113.48a187.63 187.63 0 0 1 -201.58 0zm246.42-39.87-105.52-118.78 105.5-118.78a187.61 187.61 0 0 1 0 237.56z"></path></g></svg>