<!--?xml version="1.0" encoding="UTF-8"?-->
    <!-- The Best Svg Icon site in the world: iconSvg.co, Visit us! https://iconsvg.co -->
    <svg id="svg" fill="#ffffff" width="24" height="24" version="1.1" viewBox="144 144 512 512" xmlns="http://www.w3.org/2000/svg">
    <g id="IconSvg_bgCarrier" stroke-width="0"></g>
    <g id="IconSvg_tracerCarrier" stroke-linecap="round" stroke-linejoin="round" stroke="#CCCCCC" stroke-width="0">
      <path xmlns="http://www.w3.org/2000/svg" d="m551.64 526.45h-50.383l0.003906 49.879h-50.383v-49.879h-176.33s-0.50391-29.223 0-48.367c55.418-38.285 99.25-83.125 100.26-129.98 0.50391-24.688 0.50391-73.555-38.793-73.555-36.777 0-36.777 29.223-36.273 50.383l-51.387-0.50391c-0.50391-68.52 40.305-100.76 87.16-100.76 42.32 0 89.176 32.746 90.184 98.242 1.0078 62.473-21.16 103.79-76.074 153.16h101.27l-0.007813-250.9h50.383v250.39h50.383z" fill-rule="evenodd"></path>

      </g>
     <g id="IconSvg_iconCarrier">
      <path xmlns="http://www.w3.org/2000/svg" d="m551.64 526.45h-50.383l0.003906 49.879h-50.383v-49.879h-176.33s-0.50391-29.223 0-48.367c55.418-38.285 99.25-83.125 100.26-129.98 0.50391-24.688 0.50391-73.555-38.793-73.555-36.777 0-36.777 29.223-36.273 50.383l-51.387-0.50391c-0.50391-68.52 40.305-100.76 87.16-100.76 42.32 0 89.176 32.746 90.184 98.242 1.0078 62.473-21.16 103.79-76.074 153.16h101.27l-0.007813-250.9h50.383v250.39h50.383z" fill-rule="evenodd"></path>

      </g>
      </svg>