    <svg id="svg" fill="#ffffff" width="24" style="transform: rotate(180deg);" height="24" version="1.1" viewBox="144 144 512 512" xmlns="http://www.w3.org/2000/svg">
    <g id="IconSvg_bgCarrier" stroke-width="0"></g>
    <g id="IconSvg_tracerCarrier" stroke-linecap="round" stroke-linejoin="round" stroke="#CCCCCC" stroke-width="0">
      <path xmlns="http://www.w3.org/2000/svg" d="m564.24 487.16c0 41.816-34.258 77.082-76.074 77.082-41.816 0-76.074-35.77-76.074-78.09 0-39.801 30.23-71.039 68.52-74.562 4.5352-14.105 8.5664-31.234 8.5664-48.367 0-76.578-43.328-77.082-89.176-77.082s-88.672-1.5117-88.672 77.586c0 18.641 4.0312 34.762 9.0703 47.863 37.785 4.0312 68.016 36.273 68.016 75.57 0 41.816-34.258 77.082-76.074 77.082s-76.074-35.77-76.074-78.09c0-27.207 14.609-50.883 36.273-63.984-5.543-16.625-11.082-37.785-11.586-58.441 0-63.48 30.23-126.96 139.55-127.46 109.33-0.50391 138.55 70.031 138.55 126.46 0 19.145-4.0312 43.328-8.0625 61.969 20.145 13.605 33.246 36.781 33.246 62.473zm-281.63 0.50391c0 16.121 11.082 30.23 29.727 30.23 18.641 0 30.73-14.105 30.73-30.23 0-16.121-14.105-30.23-30.73-30.23-16.121 0.003906-29.727 14.109-29.727 30.23zm206.06-30.227c-16.121 0-30.23 14.105-30.23 30.23 0 16.121 11.082 30.23 29.727 30.23 18.641 0 30.73-14.105 30.73-30.23 0.003907-16.125-14.105-30.23-30.227-30.23z" fill-rule="evenodd"></path>

      </g>
     <g id="IconSvg_iconCarrier">
      <path xmlns="http://www.w3.org/2000/svg" d="m564.24 487.16c0 41.816-34.258 77.082-76.074 77.082-41.816 0-76.074-35.77-76.074-78.09 0-39.801 30.23-71.039 68.52-74.562 4.5352-14.105 8.5664-31.234 8.5664-48.367 0-76.578-43.328-77.082-89.176-77.082s-88.672-1.5117-88.672 77.586c0 18.641 4.0312 34.762 9.0703 47.863 37.785 4.0312 68.016 36.273 68.016 75.57 0 41.816-34.258 77.082-76.074 77.082s-76.074-35.77-76.074-78.09c0-27.207 14.609-50.883 36.273-63.984-5.543-16.625-11.082-37.785-11.586-58.441 0-63.48 30.23-126.96 139.55-127.46 109.33-0.50391 138.55 70.031 138.55 126.46 0 19.145-4.0312 43.328-8.0625 61.969 20.145 13.605 33.246 36.781 33.246 62.473zm-281.63 0.50391c0 16.121 11.082 30.23 29.727 30.23 18.641 0 30.73-14.105 30.73-30.23 0-16.121-14.105-30.23-30.73-30.23-16.121 0.003906-29.727 14.109-29.727 30.23zm206.06-30.227c-16.121 0-30.23 14.105-30.23 30.23 0 16.121 11.082 30.23 29.727 30.23 18.641 0 30.73-14.105 30.73-30.23 0.003907-16.125-14.105-30.23-30.227-30.23z" fill-rule="evenodd"></path>

      </g>
      </svg>