<svg version="1.1" fill="white" id="Capa_1" xmlns="http://www.w3.org/2000/svg" xmlns:xlink="http://www.w3.org/1999/xlink" x="0px" y="0px" viewBox="0 0 606.07 606.07" style="enable-background:new 0 0 606.07 606.07;" xml:space="preserve"><g><g><path d="M419.003,411.858h-76.847v-60.086c39.237-1.729,76.88-15.79,102.832-42.347c-63.627,18.467-119.083,5.717-161.062-47.039 c-36.949-46.435-43.154-99.74-16.39-152.176c34.06-66.729,92.257-89.548,165.738-77.234c-56.627-43.228-163-53.656-234.959,28.891 c-55.619,63.803-62.477,173.151,15.867,245.568c14.48,13.382,31.473,23.725,49.727,31.081v73.338h-76.843 c-21.608,0-39.123,17.516-39.123,39.123s17.515,39.123,39.123,39.123h76.843v76.847c0,21.608,17.515,39.123,39.123,39.123 c21.607,0,39.123-17.515,39.123-39.123v-76.847h76.847c21.607,0,39.123-17.516,39.123-39.123S440.61,411.858,419.003,411.858z" ></path></g></g></svg>