<!--?xml version="1.0" encoding="UTF-8"?-->
    <!-- The Best Svg Icon site in the world: iconSvg.co, Visit us! https://iconsvg.co -->
    <svg id="svg" fill="#ffffff" width="24" height="24" version="1.1" viewBox="144 144 512 512" xmlns="http://www.w3.org/2000/svg">
    <g id="IconSvg_bgCarrier" stroke-width="0"></g>
    <g id="IconSvg_tracerCarrier" stroke-linecap="round" stroke-linejoin="round" stroke="#CCCCCC" stroke-width="0">
      <path xmlns="http://www.w3.org/2000/svg" d="m525.95 374.81v-64.488l-70.531 70.031c13.098 19.648 20.656 42.824 20.656 68.016 0 69.023-57.434 126.46-126.96 126.46-69.523-0.003907-125.45-57.941-125.45-127.97s55.922-123.43 125.45-123.43c26.199 0 50.383 8.0625 71.039 21.16l70.535-69.527-65.5 0.003907v-49.879h151.14v149.63zm-253.41 74.562c0 42.32 34.258 76.578 76.578 76.578 42.32 0 78.09-34.762 78.09-76.578 0-42.32-34.762-76.578-77.082-76.578-42.32 0-77.586 34.258-77.586 76.578z" fill-rule="evenodd"></path>

      </g>
     <g id="IconSvg_iconCarrier">
      <path xmlns="http://www.w3.org/2000/svg" d="m525.95 374.81v-64.488l-70.531 70.031c13.098 19.648 20.656 42.824 20.656 68.016 0 69.023-57.434 126.46-126.96 126.46-69.523-0.003907-125.45-57.941-125.45-127.97s55.922-123.43 125.45-123.43c26.199 0 50.383 8.0625 71.039 21.16l70.535-69.527-65.5 0.003907v-49.879h151.14v149.63zm-253.41 74.562c0 42.32 34.258 76.578 76.578 76.578 42.32 0 78.09-34.762 78.09-76.578 0-42.32-34.762-76.578-77.082-76.578-42.32 0-77.586 34.258-77.586 76.578z" fill-rule="evenodd"></path>

      </g>
      </svg>