<!--?xml version="1.0" encoding="UTF-8"?-->
    <!-- The Best Svg Icon site in the world: iconSvg.co, Visit us! https://iconsvg.co -->
    <svg id="svg" fill="#ffffff" stroke="#ffffff" width="24" height="24" version="1.1" viewBox="144 144 512 512" xmlns="http://www.w3.org/2000/svg">
    <g id="IconSvg_bgCarrier" stroke-width="0"></g>
    <g id="IconSvg_tracerCarrier" stroke-linecap="round" stroke-linejoin="round" stroke="#CCCCCC" stroke-width="0">
      <path xmlns="http://www.w3.org/2000/svg" d="m523.94 222.15c-11.586 23.68-28.719 43.832-50.383 57.938 18.137 18.137 29.223 42.32 29.223 70.031 0 45.848-32.242 85.145-75.57 96.73v30.73h50.383v50.383h-50.383v50.883h-50.383v-50.883h-50.383v-50.383h50.383v-30.73c-42.32-12.09-74.062-51.387-74.062-98.242 0-26.199 10.078-49.375 26.703-67.008-23.176-14.609-41.816-35.266-53.402-60.457l48.367 4.5352c13.098 14.105 29.727 24.184 48.871 29.727 9.0703-2.5195 19.145-4.5352 29.223-4.5352 9.5742 0 18.641 1.5117 27.207 4.0312 18.137-5.543 34.762-15.113 47.359-28.719zm-171.3 128.98c0 27.207 18.641 50.383 49.879 50.383 31.234 0 51.387-23.68 51.387-50.383 0-24.688-19.648-45.848-43.328-49.879-3.5273 0.50391-7.0547 1.0078-10.578 1.0078-2.5195 0-4.5352-0.50391-7.0547-0.50391-22.672 5.0391-40.305 25.695-40.305 49.375z" fill-rule="evenodd"></path>

      </g>
     <g id="IconSvg_iconCarrier">
      <path xmlns="http://www.w3.org/2000/svg" d="m523.94 222.15c-11.586 23.68-28.719 43.832-50.383 57.938 18.137 18.137 29.223 42.32 29.223 70.031 0 45.848-32.242 85.145-75.57 96.73v30.73h50.383v50.383h-50.383v50.883h-50.383v-50.883h-50.383v-50.383h50.383v-30.73c-42.32-12.09-74.062-51.387-74.062-98.242 0-26.199 10.078-49.375 26.703-67.008-23.176-14.609-41.816-35.266-53.402-60.457l48.367 4.5352c13.098 14.105 29.727 24.184 48.871 29.727 9.0703-2.5195 19.145-4.5352 29.223-4.5352 9.5742 0 18.641 1.5117 27.207 4.0312 18.137-5.543 34.762-15.113 47.359-28.719zm-171.3 128.98c0 27.207 18.641 50.383 49.879 50.383 31.234 0 51.387-23.68 51.387-50.383 0-24.688-19.648-45.848-43.328-49.879-3.5273 0.50391-7.0547 1.0078-10.578 1.0078-2.5195 0-4.5352-0.50391-7.0547-0.50391-22.672 5.0391-40.305 25.695-40.305 49.375z" fill-rule="evenodd"></path>

      </g>
      </svg>