<!--?xml version="1.0" encoding="UTF-8"?-->
    <!-- The Best Svg Icon site in the world: iconSvg.co, Visit us! https://iconsvg.co -->
    <svg id="svg" fill="#ffffff" stroke="#ffffff" width="24" height="24" version="1.1" viewBox="144 144 512 512" xmlns="http://www.w3.org/2000/svg">
    <g id="IconSvg_bgCarrier" stroke-width="0"></g>
    <g id="IconSvg_tracerCarrier" stroke-linecap="round" stroke-linejoin="round" stroke="#CCCCCC" stroke-width="0">
      <path xmlns="http://www.w3.org/2000/svg" d="m389.92 583.39c-81.113 0-149.63-39.801-166.76-99.25l12.09-39.297c45.344 24.184 101.27 19.145 152.65-29.727 44.336-41.816 57.938-110.84 30.23-162.23 0 0 25.695-25.695 33.25-34.762l0.50391-1.0078c72.043 26.703 123.94 95.723 123.94 176.33 0.50781 103.79-80.605 189.94-185.9 189.94zm81.113-306.82c10.078 61.465-4.5352 129.48-47.863 171.8-39.297 38.289-99.754 52.898-155.17 42.824 31.738 26.199 79.602 40.305 121.42 40.305 75.066 0 137.54-62.473 137.54-137.54 0-49.883-21.16-89.684-55.922-117.39z" fill-rule="evenodd"></path>

      </g>
     <g id="IconSvg_iconCarrier">
      <path xmlns="http://www.w3.org/2000/svg" d="m389.92 583.39c-81.113 0-149.63-39.801-166.76-99.25l12.09-39.297c45.344 24.184 101.27 19.145 152.65-29.727 44.336-41.816 57.938-110.84 30.23-162.23 0 0 25.695-25.695 33.25-34.762l0.50391-1.0078c72.043 26.703 123.94 95.723 123.94 176.33 0.50781 103.79-80.605 189.94-185.9 189.94zm81.113-306.82c10.078 61.465-4.5352 129.48-47.863 171.8-39.297 38.289-99.754 52.898-155.17 42.824 31.738 26.199 79.602 40.305 121.42 40.305 75.066 0 137.54-62.473 137.54-137.54 0-49.883-21.16-89.684-55.922-117.39z" fill-rule="evenodd"></path>

      </g>
      </svg>