 <svg id="svg" fill="#ffffff" stroke="#ffffff" width="24" height="24" version="1.1" viewBox="144 144 512 512" xmlns="http://www.w3.org/2000/svg">
    <g id="IconSvg_bgCarrier" stroke-width="0"></g>
    <g id="IconSvg_tracerCarrier" stroke-linecap="round" stroke-linejoin="round" stroke="#CCCCCC" stroke-width="0">
      <path xmlns="http://www.w3.org/2000/svg" d="m425.19 424.18v51.391h50.383v50.383l-50.383-0.003906v50.383h-50.379v-50.383h-50.383v-50.379h50.383v-51.391c-71.543-12.09-125.95-76.074-125.95-151.64 0-17.129 3.5273-33.25 8.5664-48.367h55.418c-8.5664 14.613-13.602 31.238-13.602 49.375 0 47.359 32.746 86.656 76.074 97.738v-147.11h50.383v146.11c42.316-11.586 75.066-50.379 75.066-96.73 0-18.137-5.0391-34.762-13.602-49.879h54.914c5.543 15.617 9.5742 32.746 9.5742 50.383-0.50781 74.562-54.918 137.54-126.46 150.13z" fill-rule="evenodd"></path>

      </g>
     <g id="IconSvg_iconCarrier">
      <path xmlns="http://www.w3.org/2000/svg" d="m425.19 424.18v51.391h50.383v50.383l-50.383-0.003906v50.383h-50.379v-50.383h-50.383v-50.379h50.383v-51.391c-71.543-12.09-125.95-76.074-125.95-151.64 0-17.129 3.5273-33.25 8.5664-48.367h55.418c-8.5664 14.613-13.602 31.238-13.602 49.375 0 47.359 32.746 86.656 76.074 97.738v-147.11h50.383v146.11c42.316-11.586 75.066-50.379 75.066-96.73 0-18.137-5.0391-34.762-13.602-49.879h54.914c5.543 15.617 9.5742 32.746 9.5742 50.383-0.50781 74.562-54.918 137.54-126.46 150.13z" fill-rule="evenodd"></path>

      </g>
      </svg>