<!--?xml version="1.0" encoding="UTF-8"?-->
    <!-- The Best Svg Icon site in the world: iconSvg.co, Visit us! https://iconsvg.co -->
    <svg id="svg" fill="#ffffff" stroke="#ffffff" width="24" height="24" version="1.1" viewBox="144 144 512 512" xmlns="http://www.w3.org/2000/svg">
    <g id="IconSvg_bgCarrier" stroke-width="0"></g>
    <g id="IconSvg_tracerCarrier" stroke-linecap="round" stroke-linejoin="round" stroke="#CCCCCC" stroke-width="0">
      <path xmlns="http://www.w3.org/2000/svg" d="m563.23 499.25s2.0156 75.57-49.879 75.57c-51.891 0-50.383-49.375-49.375-71.539 1.0078-21.16 5.543-103.79-56.93-104.79-62.473-0.50391-69.02 100.26-69.02 100.26h-0.50391v1.0078h-50.383v-174.82h-50.383v-49.879h50.383v-49.879h50.383v49.879h50.383v49.879h-50.383v55.922c17.633-18.641 40.809-32.242 71.539-31.738 110.34 0.50391 97.234 125.45 96.73 149.63-0.50391 11.082 4.0312 29.727 19.648 29.727 17.633-0.50391 14.609-28.719 14.609-28.719h23.18z" fill-rule="evenodd"></path>

      </g>
     <g id="IconSvg_iconCarrier">
      <path xmlns="http://www.w3.org/2000/svg" d="m563.23 499.25s2.0156 75.57-49.879 75.57c-51.891 0-50.383-49.375-49.375-71.539 1.0078-21.16 5.543-103.79-56.93-104.79-62.473-0.50391-69.02 100.26-69.02 100.26h-0.50391v1.0078h-50.383v-174.82h-50.383v-49.879h50.383v-49.879h50.383v49.879h50.383v49.879h-50.383v55.922c17.633-18.641 40.809-32.242 71.539-31.738 110.34 0.50391 97.234 125.45 96.73 149.63-0.50391 11.082 4.0312 29.727 19.648 29.727 17.633-0.50391 14.609-28.719 14.609-28.719h23.18z" fill-rule="evenodd"></path>

      </g>
      </svg>