<svg id="Capa_1" enable-background="new 0 0 510 510" fill="white" viewBox="0 0 510 510" xmlns="http://www.w3.org/2000/svg" xmlns:xlink="http://www.w3.org/1999/xlink"><linearGradient id="lg1"><stop offset="0" stop-color="#fedf30"></stop><stop offset="1" stop-color="#f6ab31"></stop></linearGradient><linearGradient id="SVGID_1_" gradientUnits="userSpaceOnUse" x1="39.486" x2="475.341" xlink:href="#lg1" y1="26.52" y2="462.375"></linearGradient><linearGradient id="lg2"><stop offset="0" stop-color="#ac2538" stop-opacity="0"></stop><stop offset=".2396" stop-color="#a32735" stop-opacity=".24"></stop><stop offset=".6354" stop-color="#8a2d2e" stop-opacity=".635"></stop><stop offset="1" stop-color="#6d3326"></stop></linearGradient><linearGradient id="SVGID_2_" gradientUnits="userSpaceOnUse" x1="318.005" x2="76.257" xlink:href="#lg2" y1="340.631" y2="340.631"></linearGradient><linearGradient id="SVGID_3_" gradientUnits="userSpaceOnUse" x1="255.005" x2="255.005" xlink:href="#lg2" y1="434.243" y2="517.451"></linearGradient><linearGradient id="SVGID_4_" gradientUnits="userSpaceOnUse" x1="251.432" x2="274.765" xlink:href="#lg2" y1="423.301" y2="286.635"></linearGradient><linearGradient id="SVGID_5_" gradientUnits="userSpaceOnUse" x1="426.565" x2="106.565" xlink:href="#lg1" y1="236.701" y2="138.701"></linearGradient><g><path d="m331.825 368.81h-44.64v-32.896c22.13-8.856 42.388-22.305 59.613-39.885 33.085-33.766 50.738-78.422 49.711-125.744-.965-44.386-18.808-86.389-50.242-118.273-31.44-31.889-73.187-50.321-117.553-51.899-36.571-1.301-71.944 8.644-102.312 28.76-10.436 6.913-15.022 19.604-11.413 31.58 3.628 12.038 14.52 20.124 27.098 20.124h.01.172c24.966.034 48.424 9.788 66.053 27.466 17.63 17.678 27.32 41.162 27.286 66.127-.07 51.497-41.984 93.344-93.466 93.34-.05 0-.107 0-.159 0h-.124c-12.589-.024-23.509 8.014-27.169 20.043-3.645 11.977.916 24.691 11.345 31.636 28.525 19.001 61.766 29.069 96.127 29.117h.244c.14 0 .28-.005.42-.005v20.51h-44.64c-17.78 0-32.19 14.41-32.19 32.18 0 17.78 14.41 32.19 32.19 32.19h44.64v44.64c0 17.77 14.41 32.18 32.18 32.18s32.18-14.41 32.18-32.18v-44.64h44.64c17.78 0 32.19-14.41 32.19-32.19-.001-17.771-14.411-32.181-32.191-32.181zm-109.421-65.505c-.06 0-.121 0-.181 0-5.782-.008-11.522-.399-17.187-1.162-2.271-.306-2.776-3.358-.731-4.39 45.153-22.787 76.228-69.583 76.302-123.522.05-36.985-14.306-71.776-40.423-97.965-10.54-10.569-22.485-19.226-35.418-25.796-2.034-1.033-1.512-4.083.75-4.378 7.098-.925 14.317-1.266 21.597-1.009 32.834 1.169 63.77 14.849 87.107 38.521s36.584 54.803 37.297 87.658c.764 35.108-12.328 68.233-36.862 93.272-24.501 25.007-57.256 38.771-92.251 38.771z"></path><path d="m287.185 477.82v-44.64h44.64c17.78 0 32.19-14.41 32.19-32.19 0-17.77-14.41-32.18-32.19-32.18h-44.64v-32.896c22.13-8.856 42.388-22.305 59.613-39.885 32.857-33.533 50.485-77.808 49.72-124.767h-45c.764 35.108-12.328 68.233-36.862 93.272-16.688 17.031-37.207 28.841-59.651 34.646v210.82c17.77 0 32.18-14.41 32.18-32.18z"></path><path d="m178.183 433.177h44.638v44.638c0 17.775 14.41 32.185 32.185 32.185s32.184-14.41 32.184-32.185v-44.638h44.638c17.775 0 32.185-14.41 32.185-32.185h-218.015c0 17.776 14.41 32.185 32.185 32.185z" fill="url(#SVGID_3_)" style="fill: rgb(255, 255, 255);"></path><path d="m178.183 433.177h44.638v44.638c0 17.775 14.41 32.185 32.185 32.185s32.184-14.41 32.184-32.185v-44.638h44.638c17.775 0 32.185-14.41 32.185-32.185h-218.015c0 17.776 14.41 32.185 32.185 32.185z" fill="url(#SVGID_4_)" style="fill: rgb(255, 255, 255);"></path><path d="m374.009 170.773c-1.734-79.847-66.285-145.335-146.1-148.175-32.983-1.174-63.703 8.218-89.086 25.032-4.738 3.139-2.415 10.449 3.269 10.446h.203c64.047.088 115.896 52.078 115.808 116.125s-52.079 115.896-116.125 115.809c-.066 0-.132 0-.198 0-5.697-.018-8.018 7.296-3.277 10.454 23.968 15.964 52.727 25.3 83.683 25.342 84.948.115 153.678-69.635 151.823-155.033zm-151.605 132.532c-.06 0-.121 0-.181 0-5.782-.008-11.522-.399-17.187-1.162-2.271-.306-2.776-3.358-.731-4.39 45.153-22.787 76.228-69.583 76.302-123.522.05-36.985-14.306-71.776-40.423-97.965-10.54-10.569-22.485-19.226-35.418-25.796-2.034-1.033-1.512-4.083.75-4.378 7.098-.925 14.317-1.266 21.597-1.009 32.834 1.169 63.77 14.849 87.107 38.521s36.584 54.803 37.297 87.658c.764 35.108-12.328 68.233-36.862 93.272-24.501 25.007-57.256 38.771-92.251 38.771z"></path></g></svg>