<!--?xml version="1.0" encoding="UTF-8"?-->
    <!-- The Best Svg Icon site in the world: iconSvg.co, Visit us! https://iconsvg.co -->
    <svg id="svg" fill="#ffffff" stroke="#ffffff" width="24" height="24" version="1.1" viewBox="144 144 512 512" xmlns="http://www.w3.org/2000/svg">
    <g id="IconSvg_bgCarrier" stroke-width="0"></g>
    <g id="IconSvg_tracerCarrier" stroke-linecap="round" stroke-linejoin="round" stroke="#CCCCCC" stroke-width="0">
      <path xmlns="http://www.w3.org/2000/svg" d="m399.5 224.17c-97.234 0-176.33 75.066-176.33 172.81 0 97.738 79.098 178.85 176.33 178.85s177.34-80.105 177.34-176.84c0-96.734-79.602-174.82-177.34-174.82zm-0.50391 302.29c-70.031 0-126.96-56.93-126.96-126.96 0-70.027 56.93-126.96 127.97-126.96 70.535 0 127.97 56.93 127.97 126.96-0.003906 70.027-59.453 126.96-128.98 126.96zm1.0078-157.69c-16.625 0-29.727 13.098-29.727 29.727 0 16.121 13.602 29.727 29.727 29.727 16.625 0 29.727-13.098 29.727-29.727 0.5-16.625-13.102-29.727-29.727-29.727z" fill-rule="evenodd"></path>

      </g>
     <g id="IconSvg_iconCarrier">
      <path xmlns="http://www.w3.org/2000/svg" d="m399.5 224.17c-97.234 0-176.33 75.066-176.33 172.81 0 97.738 79.098 178.85 176.33 178.85s177.34-80.105 177.34-176.84c0-96.734-79.602-174.82-177.34-174.82zm-0.50391 302.29c-70.031 0-126.96-56.93-126.96-126.96 0-70.027 56.93-126.96 127.97-126.96 70.535 0 127.97 56.93 127.97 126.96-0.003906 70.027-59.453 126.96-128.98 126.96zm1.0078-157.69c-16.625 0-29.727 13.098-29.727 29.727 0 16.121 13.602 29.727 29.727 29.727 16.625 0 29.727-13.098 29.727-29.727 0.5-16.625-13.102-29.727-29.727-29.727z" fill-rule="evenodd"></path>

      </g>
      </svg>