 <!--?xml version="1.0" encoding="UTF-8"?-->
    <!-- The Best Svg Icon site in the world: iconSvg.co, Visit us! https://iconsvg.co -->
    <svg id="svg" fill="#ffffff" stroke="#ffffff" width="24" height="24" version="1.1" viewBox="144 144 512 512" xmlns="http://www.w3.org/2000/svg" stroke-width="0">
    <g id="IconSvg_bgCarrier" stroke-width="0"></g>
    <g id="IconSvg_tracerCarrier" stroke-linecap="round" stroke-linejoin="round" stroke="#CCCCCC" stroke-width="0">
      <path xmlns="http://www.w3.org/2000/svg" d="m575.32 553.16c-56.93-29.219-96.73-86.656-99.754-153.66h-50.383v54.41c22.168 10.078 37.785 31.738 37.785 57.434 0 34.762-28.719 63.48-63.984 63.48s-63.48-29.223-63.48-64.488c0-26.703 16.121-48.367 39.297-57.434l0.003906-53.402h-50.383c-3.0234 66.504-43.328 124.44-100.26 153.66v-54.41c31.738-25.191 52.395-63.984 52.395-106.3 0-42.32-20.656-80.105-52.395-104.79v-56.93c46.855 24.184 82.625 67.008 95.219 118.9h55.422v-124.95h50.383l-0.003906 124.95h54.914c12.594-51.891 48.367-94.715 95.219-118.9v56.93c-31.234 24.688-51.891 61.969-51.891 104.29s20.656 80.609 51.891 105.8zm-175.83-66c-14.105 0-25.191 11.082-25.191 25.191 0 13.602 11.082 25.191 25.191 25.191 13.602 0 25.695-11.082 25.695-25.191-0.003906-14.105-11.59-25.191-25.695-25.191z" fill-rule="evenodd"></path>

      </g>
     <g id="IconSvg_iconCarrier">
      <path xmlns="http://www.w3.org/2000/svg" d="m575.32 553.16c-56.93-29.219-96.73-86.656-99.754-153.66h-50.383v54.41c22.168 10.078 37.785 31.738 37.785 57.434 0 34.762-28.719 63.48-63.984 63.48s-63.48-29.223-63.48-64.488c0-26.703 16.121-48.367 39.297-57.434l0.003906-53.402h-50.383c-3.0234 66.504-43.328 124.44-100.26 153.66v-54.41c31.738-25.191 52.395-63.984 52.395-106.3 0-42.32-20.656-80.105-52.395-104.79v-56.93c46.855 24.184 82.625 67.008 95.219 118.9h55.422v-124.95h50.383l-0.003906 124.95h54.914c12.594-51.891 48.367-94.715 95.219-118.9v56.93c-31.234 24.688-51.891 61.969-51.891 104.29s20.656 80.609 51.891 105.8zm-175.83-66c-14.105 0-25.191 11.082-25.191 25.191 0 13.602 11.082 25.191 25.191 25.191 13.602 0 25.695-11.082 25.695-25.191-0.003906-14.105-11.59-25.191-25.695-25.191z" fill-rule="evenodd"></path>

      </g>
      </svg>