<!--?xml version="1.0" encoding="UTF-8"?-->
    <!-- The Best Svg Icon site in the world: iconSvg.co, Visit us! https://iconsvg.co -->
    <svg id="svg" fill="#ffffff" stroke="#ffffff" width="24" height="24" version="1.1" viewBox="144 144 512 512" xmlns="http://www.w3.org/2000/svg">
    <g id="IconSvg_bgCarrier" stroke-width="0"></g>
    <g id="IconSvg_tracerCarrier" stroke-linecap="round" stroke-linejoin="round" stroke="#CCCCCC" stroke-width="0">
      <path xmlns="http://www.w3.org/2000/svg" d="m425.19 465.49v22.672h50.383v50.883l-50.383 0.003906v49.879l-50.379-0.003907v-49.879l-50.383 0.003906v-50.887h50.383v-22.672c-57.434-12.09-100.76-65.496-100.76-128.47 0-71.539 56.426-126.46 125.45-126.46 69.527 0 125.95 57.434 125.95 127.97 0.5 61.973-42.824 114.87-100.26 126.96zm-25.188-204.04c-42.824 0-77.586 35.266-77.586 79.098s34.762 79.602 77.082 79.602c42.32 0 78.09-35.77 78.09-79.602 0-43.828-34.762-79.098-77.586-79.098z" fill-rule="evenodd"></path>

      </g>
     <g id="IconSvg_iconCarrier">
      <path xmlns="http://www.w3.org/2000/svg" d="m425.19 465.49v22.672h50.383v50.883l-50.383 0.003906v49.879l-50.379-0.003907v-49.879l-50.383 0.003906v-50.887h50.383v-22.672c-57.434-12.09-100.76-65.496-100.76-128.47 0-71.539 56.426-126.46 125.45-126.46 69.527 0 125.95 57.434 125.95 127.97 0.5 61.973-42.824 114.87-100.26 126.96zm-25.188-204.04c-42.824 0-77.586 35.266-77.586 79.098s34.762 79.602 77.082 79.602c42.32 0 78.09-35.77 78.09-79.602 0-43.828-34.762-79.098-77.586-79.098z" fill-rule="evenodd"></path>

      </g>
      </svg>